<svg width="17" height="12" viewBox="0 0 17 12" fill="none" xmlns="http://www.w3.org/2000/svg">
<path d="M14.3948 0.98785L8.49207 7.46977L2.58933 0.98785C2.44848 0.833182 2.28127 0.710495 2.09724 0.626789C1.91322 0.543084 1.71598 0.5 1.51679 0.5C1.31761 0.5 1.12037 0.543084 0.93634 0.626789C0.752316 0.710495 0.585104 0.833182 0.444256 0.98785C0.30341 1.14252 0.191685 1.32613 0.115459 1.52822C0.0392323 1.7303 0 1.94689 0 2.16562C0 2.38435 0.0392323 2.60094 0.115459 2.80303C0.191685 3.00511 0.30341 3.18873 0.444256 3.34339L7.42714 11.0114C7.56789 11.1663 7.73506 11.2892 7.9191 11.373C8.10314 11.4568 8.30043 11.5 8.49968 11.5C8.69892 11.5 8.89621 11.4568 9.08025 11.373C9.26429 11.2892 9.43147 11.1663 9.57221 11.0114L16.5551 3.34339C16.6961 3.18884 16.808 3.00526 16.8844 2.80316C16.9607 2.60106 17 2.38442 17 2.16562C17 1.94683 16.9607 1.73018 16.8844 1.52808C16.808 1.32598 16.6961 1.1424 16.5551 0.98785C15.9618 0.353023 14.9881 0.336316 14.3948 0.98785Z" fill="white"/>
</svg>
